HIERARCHY
ROOT Hips
{
    OFFSET 0.000000 0.000000 0.000000
    CHANNELS 6 Xposition Yposition Zposition Zrotation Xrotation Yrotation
    JOINT Spine
    {
        OFFSET -0.000000 8.603107 0.000000
        CHANNELS 3 Zrotation Xrotation Yrotation
        JOINT Spine1
        {
            OFFSET -0.000000 23.906662 0.000000
            CHANNELS 3 Zrotation Xrotation Yrotation
            JOINT Neck
            {
                OFFSET -0.000000 23.808481 2.164407
                CHANNELS 3 Zrotation Xrotation Yrotation
                JOINT Head
                {
                    OFFSET -0.000000 14.688231 -2.098319
                    CHANNELS 3 Zrotation Xrotation Yrotation
                    End Site
                    {
                        OFFSET -0.000000 26.228985 0.000000
                    }
                }
            }
            JOINT LeftShoulder
            {
                OFFSET 4.178941 22.658146 -0.129871
                CHANNELS 3 Zrotation Xrotation Yrotation
                JOINT LeftArm
                {
                    OFFSET 9.497952 0.000000 0.000000
                    CHANNELS 3 Zrotation Xrotation Yrotation
                    JOINT LeftForeArm
                    {
                        OFFSET 38.855015 0.000000 0.000000
                        CHANNELS 3 Zrotation Xrotation Yrotation
                        JOINT LeftHand
                        {
                            OFFSET 24.940550 0.000000 0.000000
                            CHANNELS 3 Zrotation Xrotation Yrotation
                            End Site
                            {
                                OFFSET 15.737392 0.000000 0.000000
                            }
                        }
                    }
                }
            }
            JOINT RightShoulder
            {
                OFFSET -4.145384 22.658146 -0.129871
                CHANNELS 3 Zrotation Xrotation Yrotation
                JOINT RightArm
                {
                    OFFSET -9.497952 0.000000 0.000000
                    CHANNELS 3 Zrotation Xrotation Yrotation
                    JOINT RightForeArm
                    {
                        OFFSET -38.855015 0.000000 0.000000
                        CHANNELS 3 Zrotation Xrotation Yrotation
                        JOINT RightHand
                        {
                            OFFSET -24.940550 0.000000 0.000000
                            CHANNELS 3 Zrotation Xrotation Yrotation
                            End Site
                            {
                                OFFSET -15.737392 0.000000 0.000000
                            }
                        }
                    }
                }
            }
        }
    }
    JOINT LeftUpLeg
    {
        OFFSET 10.491594 0.000000 0.000000
        CHANNELS 3 Zrotation Xrotation Yrotation
        JOINT LeftLeg
        {
            OFFSET -0.000000 -46.080647 0.000000
            CHANNELS 3 Zrotation Xrotation Yrotation
            JOINT LeftFoot
            {
                OFFSET -0.000000 -50.184704 0.000000
                CHANNELS 3 Zrotation Xrotation Yrotation
                JOINT LeftToeBase
                {
                    OFFSET -0.000000 -6.819536 15.737392
                    CHANNELS 3 Zrotation Xrotation Yrotation
                    End Site
                    {
                        OFFSET -0.000000 0.000000 4.196638
                    }
                }
            }
        }
    }
    JOINT RightUpLeg
    {
        OFFSET -10.491594 0.000000 0.000000
        CHANNELS 3 Zrotation Xrotation Yrotation
        JOINT RightLeg
        {
            OFFSET -0.000000 -46.080647 0.000000
            CHANNELS 3 Zrotation Xrotation Yrotation
            JOINT RightFoot
            {
                OFFSET -0.000000 -50.184704 0.000000
                CHANNELS 3 Zrotation Xrotation Yrotation
                JOINT RightToeBase
                {
                    OFFSET -0.000000 -6.819536 15.737392
                    CHANNELS 3 Zrotation Xrotation Yrotation
                    End Site
                    {
                        OFFSET -0.000000 0.000000 4.196638
                    }
                }
            }
        }
    }
}
MOTION
Frames:    8
Frame Time:    0.008333
-7.604414    103.061798    41.912060    -1.895152    0.029674    94.003517    -2.571221    -8.228556    -0.403476    4.413203    -0.391856    -0.203632    -3.640128    15.888016    0.262864    4.749322    -2.554543    1.068618    9.623947    -5.764867    -13.504665    -9.103424    -15.217396    -6.573900    29.040693    -33.275581    -69.628967    16.715096    -12.249861    14.302661    3.338044    13.385482    -6.756986    39.417351    57.998173    32.353836    0.777245    -12.024009    14.324492    17.791134    -11.556129    3.678201    0.174443    -1.773078    -0.136558    -2.724879    11.198621    -0.749583    0.860802    -10.410245    14.589064    0.000000    0.000000    0.000000    0.312938    3.442154    -2.389588    2.439888    0.604526    -1.056234    -1.951973    -5.355186    -12.552768    0.000000    0.000000    0.000000    
-7.614828    103.047218    41.920845    -1.869719    0.018315    94.603172    -2.713104    -8.209211    -0.425424    4.259421    -0.335231    -0.218544    -3.650633    15.880438    0.061410    4.946107    -2.501140    0.889557    10.036056    -5.887083    -13.655727    -8.817860    -12.007571    -6.635095    30.639944    -34.695843    -73.122009    16.707659    -11.211910    14.512674    3.461442    13.392041    -6.747857    39.222279    58.219589    32.434944    0.870590    -12.259086    14.238354    17.822618    -11.794770    3.721687    0.173736    -1.870814    -0.298510    -2.656774    11.309881    -1.002819    0.865119    -10.430153    14.452872    0.000000    0.000000    0.000000    0.341729    3.393974    -2.627110    2.477171    0.819492    -1.307903    -2.036110    -5.493860    -12.630550    0.000000    0.000000    0.000000    
-7.636633    103.040985    41.909081    -1.885575    0.045159    95.076920    -2.902812    -8.132386    -0.400217    4.234534    -0.552875    -0.173516    -4.188053    16.131262    -0.097175    5.751566    -2.465652    0.847082    10.056211    -5.600131    -14.007173    -8.153975    -9.452792    -6.699915    32.914780    -35.602386    -75.922623    16.186468    -9.147008    14.443335    3.516349    13.444004    -6.688327    39.263470    58.314495    32.318810    0.985918    -12.239589    13.937679    17.837397    -11.772977    3.808034    0.113532    -1.978245    -0.396812    -2.579798    11.373632    -1.175208    0.843292    -10.404196    14.289571    0.000000    0.000000    0.000000    0.297395    3.306410    -2.714865    2.538275    1.023647    -1.356929    -2.147445    -5.625555    -12.946015    0.000000    0.000000    0.000000    
-7.629623    103.043030    41.937214    -1.851900    0.000399    95.648422    -3.011266    -7.999224    -0.481105    4.133032    -0.876976    -0.238898    -4.630729    16.428623    -0.152099    6.416956    -2.296367    0.877783    10.206285    -5.367445    -14.310439    -7.480068    -7.025709    -6.851852    35.589912    -36.461151    -78.121849    14.214885    -6.897267    13.884538    3.585520    13.676744    -6.340255    39.590057    58.209621    31.929167    1.017116    -12.112906    13.738104    17.999308    -11.638618    3.834085    0.179882    -2.036634    -0.528608    -2.541890    11.439877    -1.458292    0.828137    -10.394066    14.161833    0.000000    0.000000    0.000000    0.383123    3.320754    -2.945282    2.557690    1.169664    -1.315998    -2.215453    -5.679181    -13.309788    0.000000    0.000000    0.000000    
-7.620701    103.051338    41.964962    -1.831235    -0.052829    96.157074    -3.198239    -7.859769    -0.469985    4.184857    -1.321826    -0.202104    -4.886709    17.230450    -0.312731    6.728406    -2.618307    0.741992    10.417975    -5.395781    -14.971649    -7.015675    -4.584793    -6.917077    38.571301    -37.164726    -80.003372    11.536268    -4.038214    13.559800    3.842745    13.799737    -6.244997    39.615185    58.199146    31.568909    1.216000    -11.951710    13.609641    17.751766    -11.535328    3.652993    0.258746    -2.082255    -0.638054    -2.513730    11.464314    -1.689213    0.793233    -10.364969    14.014025    0.000000    0.000000    0.000000    0.475047    3.306343    -3.162219    2.569647    1.319439    -1.352751    -2.231766    -5.709083    -13.546813    0.000000    0.000000    0.000000    
-7.615129    103.064957    41.982971    -1.809331    -0.079529    96.610542    -3.305932    -7.921629    -0.470022    4.030940    -1.210007    -0.198460    -5.096931    17.146069    -0.437841    7.190935    -2.336641    0.673385    11.180704    -5.491778    -15.248090    -6.670738    -2.944960    -7.384052    40.102028    -37.186111    -82.626755    10.998742    -0.652454    14.002920    3.826715    13.716768    -6.124691    39.868011    58.221691    31.404354    1.142258    -11.649477    13.404282    18.137068    -11.189411    3.781864    0.304488    -2.103036    -0.788318    -2.457805    11.505527    -1.917305    0.699465    -10.358024    13.857831    0.000000    0.000000    0.000000    0.527180    3.303356    -3.370010    2.590743    1.434671    -1.459984    -2.245524    -5.717973    -13.679807    0.000000    0.000000    0.000000    
-7.610557    103.082062    42.018604    -1.816641    -0.118113    97.055733    -3.465267    -7.978410    -0.492927    3.993006    -1.194172    -0.209785    -5.108370    17.281691    -0.505103    7.180113    -2.270983    0.591043    11.913203    -5.493712    -15.671736    -6.344101    -1.750184    -7.871257    41.429283    -36.350266    -85.052765    11.666460    3.877148    14.455505    4.051881    13.730055    -6.115040    39.577824    58.169674    31.517143    1.267783    -11.422010    13.303864    18.219650    -10.986638    3.690314    0.376840    -2.167413    -0.885617    -2.441441    11.519261    -2.115429    0.627091    -10.306357    13.716610    0.000000    0.000000    0.000000    0.625196    3.288717    -3.593419    2.565975    1.504561    -1.574164    -2.224997    -5.697808    -13.786077    0.000000    0.000000    0.000000    
-7.602864    103.096497    42.051361    -1.817531    -0.156469    97.452087    -3.615334    -8.040009    -0.551214    4.031090    -1.144651    -0.256935    -5.494134    17.338741    -0.524758    7.514971    -2.128648    0.609204    12.592857    -5.556102    -16.011631    -6.074290    -0.862203    -8.305911    43.158340    -34.385468    -86.036415    15.227615    9.456458    13.220118    4.141603    13.650598    -6.056549    39.239601    58.258343    31.737467    1.355030    -11.300220    13.191088    18.616091    -10.907607    3.397699    0.448453    -2.210619    -0.978381    -2.437839    11.510090    -2.221686    0.566358    -10.260453    13.531442    0.000000    0.000000    0.000000    0.718651    3.292608    -3.802479    2.548858    1.549413    -1.612589    -2.223356    -5.659598    -13.949166    0.000000    0.000000    0.000000    
